<svg id="Layer_1" data-name="Layer 1" xmlns="http://www.w3.org/2000/svg" viewBox="0 0 731.626 156.441"><defs><style>.cls-1{fill:#FE346E;stroke:#FE346E;stroke-miterlimit:10;stroke-width:3px;}</style></defs><path class="cls-1" d="M30.12,142.4c9.368,5.427,18.079,8.223,28.6,8.223,11.669,0,17.093-3.783,17.093-11.677,0-5.427-4.274-7.237-13.97-10.69l-10.19-3.618c-12-4.44-19.229-10.689-19.229-22.7,0-14.308,10.19-23.025,30.24-23.025a70.862,70.862,0,0,1,24.818,4.605v14.8C79.426,94.541,72.358,92.4,62.99,92.4c-10.025,0-15.613,3.125-15.613,10.525,0,4.606,2.63,6.579,11.669,9.868l9.368,3.618C83.534,122.17,90.93,126.94,90.93,139.6c0,16.446-12.819,24.34-32.377,24.34-9.533,0-19.887-1.974-28.433-6.414Z" transform="translate(-28.62 -46.334)"/><path class="cls-1" d="M190.525,82.372v78.446H175.569v-9.209a38.188,38.188,0,0,1-28.6,12.334c-11.176,0-20.708-4.112-28.762-12.334a42.4,42.4,0,0,1-11.833-30.1,41.737,41.737,0,0,1,11.833-29.931c8.054-8.223,17.586-12.334,28.762-12.334a38.032,38.032,0,0,1,28.6,12.169V85.5Zm-23.5,59.862a29.647,29.647,0,0,0,7.889-20.722,29.25,29.25,0,0,0-7.889-20.557,25.527,25.527,0,0,0-38.13,0A29.253,29.253,0,0,0,121,121.512a29.651,29.651,0,0,0,7.888,20.722,25.86,25.86,0,0,0,38.13,0Z" transform="translate(-28.62 -46.334)"/><path class="cls-1" d="M234.4,162.3,198.9,80.891h16.106c19.065,44.239,23.174,54.107,26.625,63.316,3.451-9.209,7.067-18.254,26.3-63.316h15.285l-35.5,81.407Z" transform="translate(-28.62 -46.334)"/><path class="cls-1" d="M331.7,164.107c-27.119,0-41.91-18.09-41.91-42.924,0-23.188,15.285-42.43,42.074-42.43,24,0,37.8,14.8,37.8,38.977,0,1.644,0,6.085-.164,7.729H304.412c.164,13.815,10.848,25.163,28.6,25.163,17.092,0,24.981-5.427,32.87-10.526V154.4C359.306,158.516,348.951,164.107,331.7,164.107Zm24-50.982c0-12.17-9.039-21.709-24-21.709s-25.146,8.552-26.461,21.709Z" transform="translate(-28.62 -46.334)"/><path class="cls-1" d="M387.735,201.275V80.562h13.97V94.541c6.41-10.032,18.736-15.294,29.254-15.294,21.531,0,35.007,13.485,35.007,39.634,0,32.728-22.516,45.062-44.375,45.062a76.569,76.569,0,0,1-19.229-2.631v39.963Zm33.2-50.653c15.942,0,30.241-8.388,30.241-30.425,0-19.571-9.861-27.465-24.489-27.465a25.989,25.989,0,0,0-20.38,10.361c-2.465,3.289-3.944,8.881-3.944,13.65v30.425C406.8,148.977,411.894,150.622,420.934,150.622Z" transform="translate(-28.62 -46.334)"/><path class="cls-1" d="M521.02,164.107c-25.639,0-42.568-17.1-42.568-42.43,0-24.176,16.765-43.089,42.9-43.089,26.461,0,42.731,17.927,42.731,42.6C564.08,146.017,546.494,164.107,521.02,164.107Zm.329-72.032c-19.723,0-28.269,14.636-28.269,29.6,0,15.952,9.7,28.945,28.269,28.945s27.939-14.308,27.939-29.274S541.071,92.075,521.349,92.075Z" transform="translate(-28.62 -46.334)"/><path class="cls-1" d="M583.3,50.63a8.844,8.844,0,0,1,6.409-2.8,8.576,8.576,0,0,1,6.41,2.8,10.039,10.039,0,0,1,2.465,6.743,8.8,8.8,0,0,1-2.629,6.579,8.227,8.227,0,0,1-6.246,2.8,8.844,8.844,0,0,1-6.409-2.8,9.341,9.341,0,0,1-2.466-6.579A9.747,9.747,0,0,1,583.3,50.63ZM596.946,73v89.3h-14.3V78.917Z" transform="translate(-28.62 -46.334)"/><path class="cls-1" d="M621.267,162.3V80.891h14.3V95.528c4.766-9.045,16.928-16.447,30.57-16.447,12.326,0,21.037,4.441,25.639,13.158,2.794,5.1,3.451,13.65,3.451,19.735V162.3H680.762V115.92c0-5.756-.657-12-2.958-15.788-3.123-5.426-9.04-7.729-16.271-7.729-7.56,0-17.093,3.947-22.023,11.677-2.137,3.125-3.616,7.4-3.616,13.321v44.9Z" transform="translate(-28.62 -46.334)"/><path class="cls-1" d="M737.294,93.225V162.3H722.338V57.208l14.956-6.085v30.1h18.079l2.958,12Z" transform="translate(-28.62 -46.334)"/></svg>